<svg width="512" height="512" viewBox="0 0 512 512" fill="none" xmlns="http://www.w3.org/2000/svg">
<rect width="512" height="512" fill="url(#paint0_linear_10_3)"/>
<path opacity="0.5" d="M112.034 145.554C96.8334 166.469 96.8334 196.328 96.8334 256C96.8334 315.688 96.8334 345.531 112.034 366.446C116.942 373.201 122.883 379.141 129.638 384.05C150.552 399.25 180.412 399.25 240.083 399.25H271.917C331.604 399.25 361.448 399.25 382.362 384.05C389.118 379.141 395.058 373.201 399.966 366.446C415.167 345.531 415.167 315.672 415.167 256C415.167 196.313 415.167 166.469 399.966 145.554C395.058 138.799 389.118 132.859 382.362 127.95C361.448 112.75 331.588 112.75 271.917 112.75H240.083C180.396 112.75 150.552 112.75 129.638 127.95C122.884 132.854 116.943 138.805 112.034 145.554Z" fill="#FFC400"/>
<path d="M240.083 295.792C240.083 278.49 240.083 269.847 242.853 263.003C246.494 253.963 253.576 246.738 262.542 242.917C269.227 240.083 277.71 240.083 294.662 240.083H312.838C329.79 240.083 338.273 240.083 344.958 242.917C353.924 246.738 361.006 253.963 364.647 263.003C367.417 269.847 367.417 278.49 367.417 295.792C367.417 313.093 367.417 321.736 364.647 328.58C361.006 337.621 353.924 344.845 344.958 348.667C338.273 351.5 329.79 351.5 312.838 351.5H294.678C277.726 351.5 269.243 351.5 262.558 348.667C253.592 344.845 246.51 337.621 242.869 328.58C240.083 321.736 240.083 313.093 240.083 295.792Z" fill="#FFC400"/>
<defs>
<linearGradient id="paint0_linear_10_3" x1="294.933" y1="-389" x2="-305.367" y2="581.731" gradientUnits="userSpaceOnUse">
<stop/>
<stop offset="0.0666667"/>
<stop offset="0.133333" stop-color="#010101"/>
<stop offset="0.2" stop-color="#020202"/>
<stop offset="0.266667" stop-color="#040404"/>
<stop offset="0.333333" stop-color="#070707"/>
<stop offset="0.4" stop-color="#0A0A0A"/>
<stop offset="0.466667" stop-color="#0D0D0D"/>
<stop offset="0.533333" stop-color="#111111"/>
<stop offset="0.6" stop-color="#141414"/>
<stop offset="0.666667" stop-color="#171717"/>
<stop offset="0.733333" stop-color="#1A1A1A"/>
<stop offset="0.8" stop-color="#1C1C1C"/>
<stop offset="0.866667" stop-color="#1D1D1D"/>
<stop offset="0.933333" stop-color="#1E1E1E"/>
<stop offset="1" stop-color="#1E1E1E"/>
</linearGradient>
</defs>
</svg>
